<?xml version="1.0" encoding="utf-8"?>
<!-- Generator: Adobe Illustrator 22.0.0, SVG Export Plug-In . SVG Version: 6.00 Build 0)  -->
<svg version="1.1" id="Layer_1" xmlns="http://www.w3.org/2000/svg" xmlns:xlink="http://www.w3.org/1999/xlink" x="0px" y="0px"
	 viewBox="0 0 271.5 154.2" style="enable-background:new 0 0 271.5 154.2;" xml:space="preserve">
<style type="text/css">
	.Arched_x0020_Green{fill:url(#SVGID_1_);stroke:#FFFFFF;stroke-width:0.25;stroke-miterlimit:1;}
	.st0{fill:#0054A4;}
	.st1{fill:#FFFFFF;}
	.st2{fill-rule:evenodd;clip-rule:evenodd;fill:#FFFFFF;}
</style>
<linearGradient id="SVGID_1_" gradientUnits="userSpaceOnUse" x1="-82.5398" y1="612.1344" x2="-81.8327" y2="611.4273">
	<stop  offset="0" style="stop-color:#20AC4B"/>
	<stop  offset="0.9831" style="stop-color:#19361A"/>
</linearGradient>
<rect y="0.1" class="st0" width="271.5" height="154"/>
<g>
	<g>
		<g>
			<path class="st1" d="M37.8,120v8.2h4.8v1h-6.1V120H37.8z"/>
			<path class="st1" d="M49.9,129.3c-0.3,0-0.5-0.1-0.7-0.2c-0.2-0.2-0.2-0.4-0.2-0.8c-0.3,0.4-0.6,0.6-1,0.8
				c-0.4,0.2-0.8,0.2-1.3,0.2c-0.3,0-0.6,0-0.8-0.1c-0.3-0.1-0.5-0.2-0.7-0.3c-0.2-0.2-0.4-0.3-0.5-0.6c-0.1-0.2-0.2-0.5-0.2-0.9
				c0-0.4,0.1-0.7,0.2-0.9c0.1-0.2,0.3-0.4,0.5-0.6c0.2-0.1,0.4-0.3,0.7-0.3c0.3-0.1,0.5-0.1,0.8-0.2c0.3-0.1,0.6-0.1,0.9-0.1
				c0.3,0,0.5-0.1,0.7-0.1c0.2-0.1,0.4-0.1,0.5-0.2c0.1-0.1,0.2-0.3,0.2-0.5c0-0.2,0-0.4-0.1-0.6c-0.1-0.1-0.2-0.3-0.3-0.3
				c-0.1-0.1-0.3-0.1-0.5-0.2c-0.2,0-0.3,0-0.5,0c-0.5,0-0.8,0.1-1.2,0.3c-0.3,0.2-0.5,0.5-0.5,1h-1.1c0-0.4,0.1-0.8,0.3-1
				c0.2-0.3,0.4-0.5,0.6-0.7c0.3-0.2,0.6-0.3,0.9-0.4s0.7-0.1,1.1-0.1c0.3,0,0.6,0,0.9,0.1c0.3,0,0.6,0.1,0.8,0.3
				c0.2,0.1,0.4,0.3,0.6,0.6c0.1,0.2,0.2,0.6,0.2,0.9v3.4c0,0.3,0,0.4,0,0.6c0,0.1,0.1,0.2,0.3,0.2c0.1,0,0.2,0,0.3-0.1v0.8
				C50.5,129.2,50.3,129.3,49.9,129.3z M48.4,125.9c-0.2,0-0.5,0.1-0.7,0.1c-0.2,0-0.5,0.1-0.7,0.1c-0.2,0-0.5,0.1-0.7,0.2
				c-0.2,0.1-0.4,0.2-0.5,0.4c-0.1,0.2-0.2,0.4-0.2,0.6c0,0.2,0,0.3,0.1,0.5c0.1,0.1,0.2,0.2,0.3,0.3c0.1,0.1,0.3,0.1,0.4,0.2
				c0.2,0,0.3,0.1,0.5,0.1c0.4,0,0.7,0,0.9-0.1c0.3-0.1,0.5-0.2,0.6-0.4c0.2-0.1,0.3-0.3,0.4-0.5c0.1-0.2,0.1-0.3,0.1-0.5v-1.1
				C48.8,125.8,48.6,125.9,48.4,125.9z"/>
			<path class="st1" d="M61.8,123.7c-0.3-0.2-0.6-0.3-1.1-0.3c-0.4,0-0.7,0.1-1,0.2c-0.3,0.1-0.5,0.3-0.6,0.6
				c-0.2,0.2-0.3,0.5-0.3,0.8c-0.1,0.3-0.1,0.6-0.1,1c0,0.3,0,0.6,0.1,0.9c0.1,0.3,0.2,0.6,0.3,0.8c0.2,0.2,0.4,0.4,0.6,0.5
				c0.2,0.1,0.5,0.2,0.9,0.2c0.5,0,1-0.1,1.3-0.4c0.3-0.3,0.5-0.7,0.6-1.2h1.1c-0.1,0.8-0.4,1.5-0.9,1.9c-0.5,0.4-1.2,0.7-2,0.7
				c-0.5,0-1-0.1-1.3-0.2c-0.4-0.2-0.7-0.4-1-0.7c-0.3-0.3-0.5-0.7-0.6-1.1c-0.1-0.4-0.2-0.9-0.2-1.4c0-0.5,0.1-1,0.2-1.4
				c0.1-0.4,0.3-0.8,0.6-1.1c0.3-0.3,0.6-0.6,1-0.8c0.4-0.2,0.9-0.3,1.4-0.3c0.4,0,0.7,0,1.1,0.1c0.3,0.1,0.6,0.2,0.9,0.4
				c0.3,0.2,0.5,0.4,0.6,0.7c0.2,0.3,0.3,0.6,0.3,1h-1.1C62.3,124.2,62.1,123.9,61.8,123.7z"/>
			<path class="st1" d="M71.1,129.3c-0.3,0-0.5-0.1-0.7-0.2c-0.2-0.2-0.2-0.4-0.2-0.8c-0.3,0.4-0.6,0.6-1,0.8
				c-0.4,0.2-0.8,0.2-1.3,0.2c-0.3,0-0.6,0-0.8-0.1c-0.3-0.1-0.5-0.2-0.7-0.3c-0.2-0.2-0.4-0.3-0.5-0.6c-0.1-0.2-0.2-0.5-0.2-0.9
				c0-0.4,0.1-0.7,0.2-0.9c0.1-0.2,0.3-0.4,0.5-0.6c0.2-0.1,0.4-0.3,0.7-0.3c0.3-0.1,0.5-0.1,0.8-0.2c0.3-0.1,0.6-0.1,0.9-0.1
				c0.3,0,0.5-0.1,0.7-0.1c0.2-0.1,0.4-0.1,0.5-0.2c0.1-0.1,0.2-0.3,0.2-0.5c0-0.2,0-0.4-0.1-0.6c-0.1-0.1-0.2-0.3-0.3-0.3
				c-0.1-0.1-0.3-0.1-0.5-0.2c-0.2,0-0.3,0-0.5,0c-0.5,0-0.8,0.1-1.2,0.3c-0.3,0.2-0.5,0.5-0.5,1h-1.1c0-0.4,0.1-0.8,0.3-1
				c0.2-0.3,0.4-0.5,0.6-0.7c0.3-0.2,0.6-0.3,0.9-0.4c0.3-0.1,0.7-0.1,1.1-0.1c0.3,0,0.6,0,0.9,0.1c0.3,0,0.6,0.1,0.8,0.3
				c0.2,0.1,0.4,0.3,0.6,0.6c0.1,0.2,0.2,0.6,0.2,0.9v3.4c0,0.3,0,0.4,0,0.6c0,0.1,0.1,0.2,0.3,0.2c0.1,0,0.2,0,0.3-0.1v0.8
				C71.7,129.2,71.5,129.3,71.1,129.3z M69.6,125.9c-0.2,0-0.5,0.1-0.7,0.1c-0.2,0-0.5,0.1-0.7,0.1c-0.2,0-0.5,0.1-0.7,0.2
				c-0.2,0.1-0.4,0.2-0.5,0.4c-0.1,0.2-0.2,0.4-0.2,0.6c0,0.2,0,0.3,0.1,0.5c0.1,0.1,0.2,0.2,0.3,0.3c0.1,0.1,0.3,0.1,0.4,0.2
				c0.2,0,0.3,0.1,0.5,0.1c0.4,0,0.7,0,0.9-0.1c0.3-0.1,0.5-0.2,0.6-0.4c0.2-0.1,0.3-0.3,0.4-0.5c0.1-0.2,0.1-0.3,0.1-0.5v-1.1
				C70,125.8,69.8,125.9,69.6,125.9z"/>
			<path class="st1" d="M75.4,120v9.2h-1.1V120H75.4z"/>
			<path class="st1" d="M78.4,121.3V120h1.1v1.3H78.4z M79.5,122.5v6.6h-1.1v-6.6H79.5z"/>
			<path class="st1" d="M87.3,129.2v-0.9h0c-0.2,0.4-0.5,0.6-0.8,0.8c-0.4,0.2-0.8,0.2-1.3,0.2c-0.5,0-1-0.1-1.3-0.3
				c-0.4-0.2-0.7-0.4-0.9-0.8c-0.3-0.3-0.4-0.7-0.6-1.1c-0.1-0.4-0.2-0.9-0.2-1.3c0-0.5,0.1-0.9,0.2-1.3c0.1-0.4,0.3-0.8,0.6-1.1
				c0.3-0.3,0.6-0.6,0.9-0.7c0.4-0.2,0.8-0.3,1.3-0.3c0.2,0,0.4,0,0.6,0c0.2,0,0.4,0.1,0.6,0.2c0.2,0.1,0.4,0.2,0.6,0.3
				c0.2,0.1,0.3,0.3,0.4,0.5h0V120h1.1v9.2H87.3z M83.4,126.8c0.1,0.3,0.2,0.6,0.4,0.8c0.2,0.2,0.4,0.4,0.6,0.6
				c0.3,0.1,0.6,0.2,0.9,0.2c0.4,0,0.7-0.1,0.9-0.2c0.3-0.1,0.5-0.3,0.6-0.6c0.2-0.2,0.3-0.5,0.4-0.8c0.1-0.3,0.1-0.6,0.1-0.9
				c0-0.3,0-0.6-0.1-0.9c-0.1-0.3-0.2-0.6-0.4-0.8c-0.2-0.2-0.4-0.4-0.6-0.6c-0.3-0.1-0.6-0.2-1-0.2c-0.4,0-0.7,0.1-0.9,0.2
				c-0.3,0.1-0.5,0.3-0.6,0.6c-0.2,0.2-0.3,0.5-0.3,0.8c-0.1,0.3-0.1,0.6-0.1,1C83.2,126.2,83.3,126.5,83.4,126.8z"/>
			<path class="st1" d="M96.4,129.3c-0.3,0-0.5-0.1-0.7-0.2c-0.2-0.2-0.2-0.4-0.2-0.8c-0.3,0.4-0.6,0.6-1,0.8
				c-0.4,0.2-0.8,0.2-1.3,0.2c-0.3,0-0.6,0-0.8-0.1c-0.3-0.1-0.5-0.2-0.7-0.3c-0.2-0.2-0.4-0.3-0.5-0.6c-0.1-0.2-0.2-0.5-0.2-0.9
				c0-0.4,0.1-0.7,0.2-0.9c0.1-0.2,0.3-0.4,0.5-0.6c0.2-0.1,0.4-0.3,0.7-0.3c0.3-0.1,0.5-0.1,0.8-0.2c0.3-0.1,0.6-0.1,0.9-0.1
				c0.3,0,0.5-0.1,0.7-0.1c0.2-0.1,0.4-0.1,0.5-0.2c0.1-0.1,0.2-0.3,0.2-0.5c0-0.2,0-0.4-0.1-0.6c-0.1-0.1-0.2-0.3-0.3-0.3
				c-0.1-0.1-0.3-0.1-0.5-0.2c-0.2,0-0.3,0-0.5,0c-0.5,0-0.8,0.1-1.2,0.3c-0.3,0.2-0.5,0.5-0.5,1h-1.1c0-0.4,0.1-0.8,0.3-1
				c0.2-0.3,0.4-0.5,0.6-0.7c0.3-0.2,0.6-0.3,0.9-0.4c0.3-0.1,0.7-0.1,1.1-0.1c0.3,0,0.6,0,0.9,0.1c0.3,0,0.6,0.1,0.8,0.3
				c0.2,0.1,0.4,0.3,0.6,0.6c0.1,0.2,0.2,0.6,0.2,0.9v3.4c0,0.3,0,0.4,0,0.6c0,0.1,0.1,0.2,0.3,0.2c0.1,0,0.2,0,0.3-0.1v0.8
				C97,129.2,96.8,129.3,96.4,129.3z M94.9,125.9c-0.2,0-0.5,0.1-0.7,0.1c-0.2,0-0.5,0.1-0.7,0.1c-0.2,0-0.5,0.1-0.7,0.2
				c-0.2,0.1-0.4,0.2-0.5,0.4c-0.1,0.2-0.2,0.4-0.2,0.6c0,0.2,0,0.3,0.1,0.5c0.1,0.1,0.2,0.2,0.3,0.3c0.1,0.1,0.3,0.1,0.4,0.2
				c0.2,0,0.3,0.1,0.5,0.1c0.4,0,0.7,0,0.9-0.1c0.3-0.1,0.5-0.2,0.6-0.4c0.2-0.1,0.3-0.3,0.4-0.5c0.1-0.2,0.1-0.3,0.1-0.5v-1.1
				C95.3,125.8,95.1,125.9,94.9,125.9z"/>
			<path class="st1" d="M104.3,129.2v-0.9h0c-0.2,0.4-0.5,0.6-0.8,0.8c-0.4,0.2-0.8,0.2-1.3,0.2c-0.5,0-1-0.1-1.3-0.3
				c-0.4-0.2-0.7-0.4-0.9-0.8c-0.3-0.3-0.4-0.7-0.6-1.1c-0.1-0.4-0.2-0.9-0.2-1.3c0-0.5,0.1-0.9,0.2-1.3c0.1-0.4,0.3-0.8,0.6-1.1
				c0.3-0.3,0.6-0.6,0.9-0.7c0.4-0.2,0.8-0.3,1.3-0.3c0.2,0,0.4,0,0.6,0c0.2,0,0.4,0.1,0.6,0.2c0.2,0.1,0.4,0.2,0.6,0.3
				c0.2,0.1,0.3,0.3,0.4,0.5h0V120h1.1v9.2H104.3z M100.4,126.8c0.1,0.3,0.2,0.6,0.4,0.8c0.2,0.2,0.4,0.4,0.6,0.6
				c0.3,0.1,0.6,0.2,0.9,0.2c0.4,0,0.7-0.1,0.9-0.2c0.3-0.1,0.5-0.3,0.6-0.6c0.2-0.2,0.3-0.5,0.4-0.8c0.1-0.3,0.1-0.6,0.1-0.9
				c0-0.3,0-0.6-0.1-0.9c-0.1-0.3-0.2-0.6-0.4-0.8c-0.2-0.2-0.4-0.4-0.6-0.6c-0.3-0.1-0.6-0.2-1-0.2c-0.4,0-0.7,0.1-0.9,0.2
				c-0.3,0.1-0.5,0.3-0.6,0.6c-0.2,0.2-0.3,0.5-0.3,0.8c-0.1,0.3-0.1,0.6-0.1,1C100.3,126.2,100.3,126.5,100.4,126.8z"/>
			<path class="st1" d="M117.9,128.7c-0.5,0.4-1.1,0.6-1.9,0.6c-0.5,0-1-0.1-1.4-0.3c-0.4-0.2-0.7-0.4-1-0.7
				c-0.3-0.3-0.5-0.7-0.6-1.1c-0.1-0.4-0.2-0.9-0.2-1.4c0-0.5,0.1-1,0.2-1.4c0.2-0.4,0.4-0.8,0.6-1.1c0.3-0.3,0.6-0.5,1-0.7
				c0.4-0.2,0.8-0.3,1.2-0.3c0.6,0,1.1,0.1,1.5,0.4c0.4,0.2,0.7,0.6,0.9,0.9c0.2,0.4,0.4,0.8,0.5,1.2c0.1,0.4,0.1,0.9,0.1,1.3h-5
				c0,0.3,0,0.6,0.1,0.8c0.1,0.3,0.2,0.5,0.4,0.7c0.2,0.2,0.4,0.4,0.7,0.5c0.3,0.1,0.6,0.2,0.9,0.2c0.5,0,0.8-0.1,1.1-0.3
				c0.3-0.2,0.5-0.5,0.6-1h1.1C118.7,127.8,118.4,128.4,117.9,128.7z M117.7,124.5c-0.1-0.2-0.2-0.4-0.4-0.6
				c-0.2-0.2-0.4-0.3-0.6-0.4c-0.2-0.1-0.5-0.1-0.8-0.1c-0.3,0-0.5,0-0.8,0.1c-0.2,0.1-0.4,0.2-0.6,0.4c-0.2,0.2-0.3,0.4-0.4,0.6
				c-0.1,0.2-0.1,0.5-0.2,0.7h3.8C117.8,124.9,117.8,124.7,117.7,124.5z"/>
			<path class="st1" d="M122.2,127.7c0.1,0.2,0.2,0.3,0.4,0.4c0.2,0.1,0.4,0.2,0.6,0.2c0.2,0,0.4,0.1,0.6,0.1c0.2,0,0.4,0,0.5,0
				c0.2,0,0.4-0.1,0.5-0.1c0.2-0.1,0.3-0.2,0.4-0.3c0.1-0.1,0.2-0.3,0.2-0.5c0-0.3-0.1-0.5-0.3-0.6c-0.2-0.1-0.5-0.3-0.8-0.4
				c-0.3-0.1-0.7-0.2-1-0.2c-0.4-0.1-0.7-0.2-1-0.3c-0.3-0.1-0.6-0.3-0.8-0.6c-0.2-0.2-0.3-0.6-0.3-1c0-0.3,0.1-0.6,0.2-0.9
				c0.1-0.2,0.3-0.4,0.6-0.6c0.2-0.1,0.5-0.3,0.8-0.3c0.3-0.1,0.6-0.1,0.9-0.1c0.4,0,0.7,0,1,0.1c0.3,0.1,0.6,0.2,0.8,0.3
				c0.2,0.2,0.4,0.4,0.6,0.6c0.1,0.3,0.2,0.6,0.3,1h-1.1c0-0.2-0.1-0.4-0.2-0.5c-0.1-0.1-0.2-0.3-0.4-0.3c-0.1-0.1-0.3-0.2-0.5-0.2
				c-0.2,0-0.4-0.1-0.5-0.1c-0.2,0-0.3,0-0.5,0c-0.2,0-0.3,0.1-0.5,0.1c-0.1,0.1-0.2,0.2-0.3,0.3c-0.1,0.1-0.1,0.2-0.1,0.4
				c0,0.2,0.1,0.3,0.2,0.5c0.1,0.1,0.3,0.2,0.5,0.3c0.2,0.1,0.4,0.2,0.7,0.2c0.3,0.1,0.5,0.1,0.8,0.2c0.3,0.1,0.5,0.1,0.8,0.2
				c0.3,0.1,0.5,0.2,0.7,0.3c0.2,0.1,0.4,0.3,0.5,0.5c0.1,0.2,0.2,0.5,0.2,0.8c0,0.4-0.1,0.7-0.3,1c-0.2,0.3-0.4,0.5-0.7,0.6
				c-0.3,0.2-0.6,0.3-0.9,0.3c-0.3,0.1-0.7,0.1-1,0.1c-0.4,0-0.7,0-1.1-0.1c-0.3-0.1-0.6-0.2-0.9-0.4c-0.3-0.2-0.5-0.4-0.6-0.7
				c-0.2-0.3-0.2-0.6-0.3-1h1.1C122.1,127.3,122.1,127.5,122.2,127.7z"/>
			<path class="st1" d="M135,122.5v1.1h0c0.5-0.8,1.2-1.2,2.2-1.2c0.4,0,0.8,0.1,1.1,0.2c0.3,0.1,0.5,0.3,0.7,0.5
				c0.2,0.2,0.3,0.5,0.4,0.8c0.1,0.3,0.1,0.6,0.1,1v4.4h-1.1v-4.5c0-0.4-0.1-0.7-0.4-1c-0.2-0.2-0.6-0.4-1-0.4c-0.3,0-0.6,0-0.9,0.2
				c-0.2,0.1-0.4,0.2-0.6,0.4c-0.2,0.2-0.3,0.4-0.4,0.7c-0.1,0.3-0.1,0.5-0.1,0.8v3.8h-1.1v-6.6H135z"/>
			<path class="st1" d="M146.8,129.2v-1.1h0c-0.2,0.4-0.5,0.7-0.9,0.9c-0.4,0.2-0.8,0.3-1.3,0.3c-0.4,0-0.8-0.1-1.1-0.2
				c-0.3-0.1-0.5-0.3-0.7-0.5c-0.2-0.2-0.3-0.5-0.4-0.8c-0.1-0.3-0.1-0.6-0.1-1v-4.4h1.1v4.5c0,0.4,0.1,0.7,0.4,1
				c0.2,0.2,0.6,0.4,1,0.4c0.3,0,0.6-0.1,0.9-0.2c0.2-0.1,0.4-0.3,0.6-0.4c0.2-0.2,0.3-0.4,0.4-0.7c0.1-0.3,0.1-0.5,0.1-0.8v-3.8
				h1.1v6.6H146.8z"/>
			<path class="st1" d="M155.4,128.7c-0.5,0.4-1.1,0.6-1.9,0.6c-0.5,0-1-0.1-1.4-0.3c-0.4-0.2-0.7-0.4-1-0.7
				c-0.3-0.3-0.5-0.7-0.6-1.1c-0.1-0.4-0.2-0.9-0.2-1.4c0-0.5,0.1-1,0.2-1.4c0.2-0.4,0.4-0.8,0.6-1.1c0.3-0.3,0.6-0.5,1-0.7
				c0.4-0.2,0.8-0.3,1.2-0.3c0.6,0,1.1,0.1,1.5,0.4c0.4,0.2,0.7,0.6,0.9,0.9c0.2,0.4,0.4,0.8,0.5,1.2c0.1,0.4,0.1,0.9,0.1,1.3h-5
				c0,0.3,0,0.6,0.1,0.8c0.1,0.3,0.2,0.5,0.4,0.7c0.2,0.2,0.4,0.4,0.7,0.5c0.3,0.1,0.6,0.2,0.9,0.2c0.5,0,0.8-0.1,1.1-0.3
				c0.3-0.2,0.5-0.5,0.6-1h1.1C156.3,127.8,155.9,128.4,155.4,128.7z M155.2,124.5c-0.1-0.2-0.2-0.4-0.4-0.6
				c-0.2-0.2-0.4-0.3-0.6-0.4c-0.2-0.1-0.5-0.1-0.7-0.1c-0.3,0-0.5,0-0.8,0.1c-0.2,0.1-0.4,0.2-0.6,0.4c-0.2,0.2-0.3,0.4-0.4,0.6
				c-0.1,0.2-0.1,0.5-0.2,0.7h3.8C155.3,124.9,155.3,124.7,155.2,124.5z"/>
			<path class="st1" d="M159.7,127.7c0.1,0.2,0.2,0.3,0.4,0.4c0.2,0.1,0.4,0.2,0.6,0.2c0.2,0,0.4,0.1,0.6,0.1c0.2,0,0.4,0,0.5,0
				c0.2,0,0.4-0.1,0.5-0.1c0.2-0.1,0.3-0.2,0.4-0.3c0.1-0.1,0.2-0.3,0.2-0.5c0-0.3-0.1-0.5-0.3-0.6c-0.2-0.1-0.5-0.3-0.8-0.4
				c-0.3-0.1-0.7-0.2-1-0.2c-0.4-0.1-0.7-0.2-1-0.3c-0.3-0.1-0.6-0.3-0.8-0.6c-0.2-0.2-0.3-0.6-0.3-1c0-0.3,0.1-0.6,0.2-0.9
				c0.2-0.2,0.3-0.4,0.6-0.6c0.2-0.1,0.5-0.3,0.8-0.3c0.3-0.1,0.6-0.1,0.9-0.1c0.4,0,0.7,0,1,0.1c0.3,0.1,0.6,0.2,0.8,0.3
				c0.2,0.2,0.4,0.4,0.6,0.6c0.1,0.3,0.2,0.6,0.3,1h-1.1c0-0.2-0.1-0.4-0.2-0.5c-0.1-0.1-0.2-0.3-0.4-0.3c-0.1-0.1-0.3-0.2-0.5-0.2
				c-0.2,0-0.4-0.1-0.5-0.1c-0.2,0-0.3,0-0.5,0c-0.2,0-0.3,0.1-0.5,0.1c-0.1,0.1-0.3,0.2-0.3,0.3c-0.1,0.1-0.1,0.2-0.1,0.4
				c0,0.2,0.1,0.3,0.2,0.5c0.1,0.1,0.3,0.2,0.5,0.3c0.2,0.1,0.4,0.2,0.7,0.2c0.3,0.1,0.5,0.1,0.8,0.2c0.3,0.1,0.5,0.1,0.8,0.2
				c0.3,0.1,0.5,0.2,0.7,0.3c0.2,0.1,0.4,0.3,0.5,0.5c0.1,0.2,0.2,0.5,0.2,0.8c0,0.4-0.1,0.7-0.3,1c-0.2,0.3-0.4,0.5-0.7,0.6
				c-0.3,0.2-0.6,0.3-0.9,0.3c-0.3,0.1-0.7,0.1-1,0.1c-0.4,0-0.7,0-1-0.1c-0.3-0.1-0.6-0.2-0.9-0.4c-0.3-0.2-0.5-0.4-0.6-0.7
				c-0.2-0.3-0.2-0.6-0.3-1h1.1C159.6,127.3,159.6,127.5,159.7,127.7z"/>
			<path class="st1" d="M169.4,122.5v1h-1.3v4.1c0,0.1,0,0.2,0,0.3c0,0.1,0.1,0.1,0.1,0.2c0.1,0,0.1,0.1,0.3,0.1c0.1,0,0.2,0,0.4,0
				h0.5v1h-0.8c-0.3,0-0.5,0-0.7-0.1c-0.2,0-0.4-0.1-0.5-0.2c-0.1-0.1-0.2-0.2-0.3-0.4c-0.1-0.2-0.1-0.4-0.1-0.7v-4.2h-1.1v-1h1.1
				v-2h1.1v2H169.4z"/>
			<path class="st1" d="M172.9,122.5v1.4h0c0.3-0.5,0.6-0.9,1-1.2c0.4-0.3,0.9-0.4,1.5-0.4v1.2c-0.4,0-0.8,0.1-1.1,0.2
				c-0.3,0.1-0.6,0.3-0.7,0.5c-0.2,0.2-0.3,0.5-0.4,0.8c-0.1,0.3-0.1,0.7-0.1,1.1v3h-1.1v-6.6H172.9z"/>
			<path class="st1" d="M182.6,129.3c-0.3,0-0.5-0.1-0.7-0.2c-0.2-0.2-0.3-0.4-0.3-0.8c-0.3,0.4-0.6,0.6-1,0.8
				c-0.4,0.2-0.8,0.2-1.3,0.2c-0.3,0-0.6,0-0.8-0.1c-0.3-0.1-0.5-0.2-0.7-0.3c-0.2-0.2-0.4-0.3-0.5-0.6c-0.1-0.2-0.2-0.5-0.2-0.9
				c0-0.4,0.1-0.7,0.2-0.9c0.1-0.2,0.3-0.4,0.5-0.6c0.2-0.1,0.4-0.3,0.7-0.3c0.3-0.1,0.5-0.1,0.8-0.2c0.3-0.1,0.6-0.1,0.9-0.1
				c0.3,0,0.5-0.1,0.7-0.1c0.2-0.1,0.4-0.1,0.5-0.2c0.1-0.1,0.2-0.3,0.2-0.5c0-0.2,0-0.4-0.1-0.6c-0.1-0.1-0.2-0.3-0.3-0.3
				c-0.1-0.1-0.3-0.1-0.5-0.2c-0.2,0-0.3,0-0.5,0c-0.5,0-0.8,0.1-1.2,0.3c-0.3,0.2-0.5,0.5-0.5,1h-1.1c0-0.4,0.1-0.8,0.3-1
				c0.2-0.3,0.4-0.5,0.6-0.7c0.3-0.2,0.6-0.3,0.9-0.4c0.3-0.1,0.7-0.1,1.1-0.1c0.3,0,0.6,0,0.9,0.1c0.3,0,0.6,0.1,0.8,0.3
				c0.2,0.1,0.4,0.3,0.6,0.6c0.1,0.2,0.2,0.6,0.2,0.9v3.4c0,0.3,0,0.4,0,0.6c0,0.1,0.1,0.2,0.3,0.2c0.1,0,0.2,0,0.3-0.1v0.8
				C183.2,129.2,182.9,129.3,182.6,129.3z M181,125.9c-0.2,0-0.5,0.1-0.7,0.1c-0.2,0-0.5,0.1-0.7,0.1c-0.2,0-0.5,0.1-0.7,0.2
				c-0.2,0.1-0.4,0.2-0.5,0.4c-0.1,0.2-0.2,0.4-0.2,0.6c0,0.2,0,0.3,0.1,0.5c0.1,0.1,0.2,0.2,0.3,0.3c0.1,0.1,0.3,0.1,0.4,0.2
				c0.2,0,0.3,0.1,0.5,0.1c0.4,0,0.7,0,0.9-0.1c0.3-0.1,0.5-0.2,0.6-0.4c0.2-0.1,0.3-0.3,0.4-0.5c0.1-0.2,0.1-0.3,0.1-0.5v-1.1
				C181.4,125.8,181.3,125.9,181,125.9z"/>
			<path class="st1" d="M191.6,122.5v0.9h0c0.2-0.4,0.5-0.6,0.8-0.8c0.4-0.2,0.8-0.2,1.3-0.2c0.5,0,1,0.1,1.3,0.3
				c0.4,0.2,0.7,0.4,0.9,0.8c0.3,0.3,0.4,0.7,0.6,1.1c0.1,0.4,0.2,0.9,0.2,1.3c0,0.5-0.1,0.9-0.2,1.3c-0.1,0.4-0.3,0.8-0.6,1.1
				c-0.3,0.3-0.6,0.6-0.9,0.7c-0.4,0.2-0.8,0.3-1.3,0.3c-0.2,0-0.3,0-0.5-0.1c-0.2,0-0.4-0.1-0.6-0.2c-0.2-0.1-0.4-0.2-0.6-0.3
				c-0.2-0.1-0.3-0.3-0.4-0.5h0v3.4h-1.1v-9.2H191.6z M195.5,124.9c-0.1-0.3-0.2-0.6-0.4-0.8c-0.2-0.2-0.4-0.4-0.6-0.6
				c-0.3-0.1-0.6-0.2-0.9-0.2c-0.4,0-0.7,0.1-0.9,0.2c-0.3,0.1-0.5,0.3-0.6,0.6c-0.2,0.2-0.3,0.5-0.4,0.8c-0.1,0.3-0.1,0.6-0.1,0.9
				c0,0.3,0,0.6,0.1,0.9c0.1,0.3,0.2,0.6,0.4,0.8c0.2,0.2,0.4,0.4,0.6,0.6c0.3,0.1,0.6,0.2,1,0.2c0.4,0,0.7-0.1,0.9-0.2
				c0.3-0.1,0.5-0.3,0.6-0.6c0.2-0.2,0.3-0.5,0.3-0.8c0.1-0.3,0.1-0.6,0.1-1C195.6,125.5,195.6,125.2,195.5,124.9z"/>
			<path class="st1" d="M204.5,129.3c-0.3,0-0.5-0.1-0.7-0.2c-0.2-0.2-0.3-0.4-0.3-0.8c-0.3,0.4-0.6,0.6-1,0.8
				c-0.4,0.2-0.8,0.2-1.3,0.2c-0.3,0-0.6,0-0.8-0.1c-0.3-0.1-0.5-0.2-0.7-0.3c-0.2-0.2-0.4-0.3-0.5-0.6c-0.1-0.2-0.2-0.5-0.2-0.9
				c0-0.4,0.1-0.7,0.2-0.9c0.1-0.2,0.3-0.4,0.5-0.6c0.2-0.1,0.4-0.3,0.7-0.3c0.3-0.1,0.5-0.1,0.8-0.2c0.3-0.1,0.6-0.1,0.9-0.1
				c0.3,0,0.5-0.1,0.7-0.1c0.2-0.1,0.4-0.1,0.5-0.2c0.1-0.1,0.2-0.3,0.2-0.5c0-0.2,0-0.4-0.1-0.6c-0.1-0.1-0.2-0.3-0.3-0.3
				c-0.1-0.1-0.3-0.1-0.5-0.2c-0.2,0-0.3,0-0.5,0c-0.5,0-0.8,0.1-1.2,0.3c-0.3,0.2-0.5,0.5-0.5,1h-1.1c0-0.4,0.1-0.8,0.3-1
				c0.2-0.3,0.4-0.5,0.6-0.7c0.3-0.2,0.6-0.3,0.9-0.4c0.3-0.1,0.7-0.1,1.1-0.1c0.3,0,0.6,0,0.9,0.1c0.3,0,0.6,0.1,0.8,0.3
				c0.2,0.1,0.4,0.3,0.6,0.6c0.1,0.2,0.2,0.6,0.2,0.9v3.4c0,0.3,0,0.4,0,0.6c0,0.1,0.1,0.2,0.3,0.2c0.1,0,0.2,0,0.3-0.1v0.8
				C205,129.2,204.8,129.3,204.5,129.3z M202.9,125.9c-0.2,0-0.5,0.1-0.7,0.1c-0.2,0-0.5,0.1-0.7,0.1c-0.3,0-0.5,0.1-0.7,0.2
				c-0.2,0.1-0.4,0.2-0.5,0.4c-0.1,0.2-0.2,0.4-0.2,0.6c0,0.2,0,0.3,0.1,0.5c0.1,0.1,0.2,0.2,0.3,0.3c0.1,0.1,0.3,0.1,0.4,0.2
				c0.2,0,0.3,0.1,0.5,0.1c0.4,0,0.7,0,0.9-0.1c0.3-0.1,0.5-0.2,0.6-0.4c0.2-0.1,0.3-0.3,0.4-0.5c0.1-0.2,0.1-0.3,0.1-0.5v-1.1
				C203.3,125.8,203.1,125.9,202.9,125.9z"/>
			<path class="st1" d="M208.4,127.7c0.1,0.2,0.2,0.3,0.4,0.4c0.2,0.1,0.4,0.2,0.6,0.2c0.2,0,0.4,0.1,0.7,0.1c0.2,0,0.3,0,0.5,0
				c0.2,0,0.4-0.1,0.5-0.1c0.2-0.1,0.3-0.2,0.4-0.3c0.1-0.1,0.2-0.3,0.2-0.5c0-0.3-0.1-0.5-0.3-0.6c-0.2-0.1-0.5-0.3-0.8-0.4
				c-0.3-0.1-0.7-0.2-1-0.2c-0.4-0.1-0.7-0.2-1-0.3c-0.3-0.1-0.6-0.3-0.8-0.6c-0.2-0.2-0.3-0.6-0.3-1c0-0.3,0.1-0.6,0.2-0.9
				c0.1-0.2,0.3-0.4,0.6-0.6c0.2-0.1,0.5-0.3,0.8-0.3c0.3-0.1,0.6-0.1,0.9-0.1c0.4,0,0.7,0,1,0.1c0.3,0.1,0.6,0.2,0.8,0.3
				c0.2,0.2,0.4,0.4,0.6,0.6c0.1,0.3,0.2,0.6,0.3,1h-1.1c0-0.2-0.1-0.4-0.2-0.5c-0.1-0.1-0.2-0.3-0.4-0.3c-0.1-0.1-0.3-0.2-0.5-0.2
				c-0.2,0-0.4-0.1-0.5-0.1c-0.2,0-0.3,0-0.5,0c-0.2,0-0.3,0.1-0.5,0.1c-0.1,0.1-0.2,0.2-0.3,0.3c-0.1,0.1-0.1,0.2-0.1,0.4
				c0,0.2,0.1,0.3,0.2,0.5c0.1,0.1,0.3,0.2,0.5,0.3c0.2,0.1,0.4,0.2,0.7,0.2c0.3,0.1,0.5,0.1,0.8,0.2c0.3,0.1,0.5,0.1,0.8,0.2
				c0.3,0.1,0.5,0.2,0.7,0.3c0.2,0.1,0.4,0.3,0.5,0.5c0.1,0.2,0.2,0.5,0.2,0.8c0,0.4-0.1,0.7-0.3,1c-0.2,0.3-0.4,0.5-0.7,0.6
				c-0.3,0.2-0.6,0.3-0.9,0.3c-0.3,0.1-0.7,0.1-1,0.1c-0.4,0-0.7,0-1-0.1c-0.3-0.1-0.6-0.2-0.9-0.4c-0.3-0.2-0.5-0.4-0.6-0.7
				c-0.2-0.3-0.2-0.6-0.3-1h1.1C208.2,127.3,208.3,127.5,208.4,127.7z"/>
			<path class="st1" d="M215.3,121.3V120h1.1v1.3H215.3z M216.4,122.5v6.6h-1.1v-6.6H216.4z"/>
			<path class="st1" d="M219.2,124.5c0.1-0.4,0.3-0.8,0.6-1.1c0.3-0.3,0.6-0.6,1-0.7c0.4-0.2,0.9-0.3,1.4-0.3c0.5,0,1,0.1,1.4,0.3
				c0.4,0.2,0.7,0.4,1,0.7c0.3,0.3,0.5,0.7,0.6,1.1c0.1,0.4,0.2,0.9,0.2,1.4c0,0.5-0.1,0.9-0.2,1.4c-0.1,0.4-0.3,0.8-0.6,1.1
				c-0.3,0.3-0.6,0.6-1,0.7c-0.4,0.2-0.9,0.3-1.4,0.3c-0.5,0-1-0.1-1.4-0.3c-0.4-0.2-0.7-0.4-1-0.7c-0.3-0.3-0.5-0.7-0.6-1.1
				c-0.1-0.4-0.2-0.9-0.2-1.4C219,125.3,219.1,124.9,219.2,124.5z M220.3,126.9c0.1,0.3,0.3,0.6,0.4,0.8c0.2,0.2,0.4,0.4,0.7,0.5
				c0.3,0.1,0.5,0.2,0.8,0.2c0.3,0,0.5-0.1,0.8-0.2c0.3-0.1,0.5-0.3,0.7-0.5c0.2-0.2,0.3-0.5,0.4-0.8c0.1-0.3,0.2-0.7,0.2-1.1
				c0-0.4-0.1-0.8-0.2-1.1c-0.1-0.3-0.3-0.6-0.4-0.8c-0.2-0.2-0.4-0.4-0.7-0.5c-0.3-0.1-0.5-0.2-0.8-0.2c-0.3,0-0.5,0.1-0.8,0.2
				c-0.3,0.1-0.5,0.3-0.7,0.5c-0.2,0.2-0.3,0.5-0.4,0.8c-0.1,0.3-0.2,0.7-0.2,1.1C220.1,126.2,220.2,126.6,220.3,126.9z
				 M223.9,119.8l-1.7,1.8h-0.8l1.1-1.8H223.9z"/>
			<path class="st1" d="M229,122.5v1.1h0c0.5-0.8,1.2-1.2,2.2-1.2c0.4,0,0.8,0.1,1.1,0.2c0.3,0.1,0.5,0.3,0.7,0.5
				c0.2,0.2,0.3,0.5,0.4,0.8c0.1,0.3,0.1,0.6,0.1,1v4.4h-1.1v-4.5c0-0.4-0.1-0.7-0.4-1c-0.2-0.2-0.6-0.4-1-0.4c-0.3,0-0.6,0-0.9,0.2
				c-0.2,0.1-0.4,0.2-0.6,0.4c-0.2,0.2-0.3,0.4-0.4,0.7c-0.1,0.3-0.1,0.5-0.1,0.8v3.8H228v-6.6H229z"/>
		</g>
	</g>
	<g>
		<g>
			<path class="st1" d="M66.4,75.2v6.6c0,0.5,0.1,0.9,0.2,1.1c0.2,0.2,0.5,0.4,1,0.4h1.4c1.7,0,2.8-0.5,3.5-1.5l0.2-0.3
				c0,0,0.1,0,0.1,0l0.1,0c0.1,0,0.1,0,0.1,0.1l-1,2.3l-8.5,0l-0.1-0.1l0.1-0.1c0.6-0.1,0.9-0.3,1.1-0.6c0.2-0.3,0.3-0.7,0.3-1.3
				v-6.5c0-0.6-0.1-1-0.2-1.2c-0.2-0.3-0.5-0.5-1-0.6l-0.1-0.1l0.1-0.1h4l0.1,0.1l-0.1,0.1c-0.6,0.1-1,0.2-1.2,0.5
				C66.5,74.2,66.4,74.6,66.4,75.2z"/>
			<path class="st1" d="M78.9,82.5c-0.7,1-1.5,1.5-2.6,1.5c-0.7,0-1.3-0.1-1.7-0.4c-0.5-0.3-0.8-0.9-0.8-1.5c0-1.3,1.1-2,3.3-2.2
				c0.5-0.1,1.1-0.2,1.8-0.4v-0.9c0-1.4-0.6-2.1-1.9-2.1c-0.5,0-1,0.1-1.3,0.4c-0.5,0.3-0.7,0.7-0.7,1.2c-0.2-0.1-0.3-0.2-0.5-0.2
				c-0.2-0.1-0.4-0.2-0.4-0.3c0.1-0.3,0.6-0.7,1.3-1c0.7-0.3,1.3-0.4,1.7-0.4c0.9,0,1.6,0.2,2.1,0.6c0.6,0.4,0.9,1.1,0.9,1.9V82
				c0,0.9,0.2,1.4,0.5,1.4c0.2,0,0.3-0.1,0.5-0.2l0,0.2c-0.8,0.3-1.3,0.5-1.5,0.5C79.2,83.9,79,83.5,78.9,82.5L78.9,82.5z
				 M78.8,81.3v-1.5c-0.1,0-0.5,0.2-1.4,0.4c-1.6,0.1-2.4,0.7-2.4,1.8c0,0.5,0.2,0.8,0.5,1.1c0.3,0.3,0.7,0.4,1.2,0.4
				c0.6,0,1.1-0.2,1.5-0.7C78.6,82.4,78.8,81.9,78.8,81.3z"/>
			<path class="st1" d="M83.7,77.6c0.8-1.1,1.7-1.6,2.9-1.6c1.1,0,2,0.4,2.7,1.1c0.7,0.7,1,1.7,1,2.7c0,1.2-0.4,2.2-1.2,3
				C88.3,83.6,87.3,84,86,84c-1.2,0-2.2-0.3-3-1l-0.3,0.7h-0.7c0.3-0.3,0.4-0.8,0.4-1.6v-8c0-0.4,0-0.6-0.1-0.8
				c-0.1-0.2-0.3-0.4-0.6-0.4l-0.3-0.1l-0.1-0.2l0.1-0.1l2-0.6h0.2V77.6z M83.7,78.9v1.9c0,0.8,0.2,1.5,0.6,2
				c0.4,0.5,1.1,0.8,1.9,0.8c0.9,0,1.6-0.4,2.1-1.1c0.4-0.6,0.7-1.4,0.7-2.4c0-1-0.2-1.8-0.6-2.4c-0.5-0.8-1.2-1.2-2.1-1.2
				c-0.6,0-1.2,0.2-1.7,0.7C84,77.7,83.8,78.3,83.7,78.9z"/>
			<path class="st1" d="M99.9,80c0,1.2-0.4,2.1-1.2,2.9c-0.8,0.8-1.8,1.1-3,1.1c-1.2,0-2.2-0.4-3-1.1c-0.8-0.8-1.3-1.7-1.3-2.9
				c0-1.2,0.4-2.1,1.3-2.9c0.8-0.8,1.8-1.1,3-1.1c1.2,0,2.2,0.4,3,1.1C99.5,77.9,99.9,78.8,99.9,80z M98.5,80c0-1-0.3-1.8-0.7-2.5
				c-0.5-0.8-1.3-1.2-2.2-1.2c-0.9,0-1.6,0.4-2.1,1.2C93,78.2,92.8,79,92.8,80c0,1,0.3,1.8,0.7,2.5c0.5,0.8,1.3,1.2,2.2,1.2
				c0.9,0,1.6-0.4,2.1-1.2C98.3,81.8,98.5,81,98.5,80z"/>
			<path class="st1" d="M103.1,81.8c0,0.6,0.1,1,0.2,1.2c0.2,0.3,0.6,0.5,1.1,0.6h0.1l0.1,0.1l-0.1,0.1h-3.7l-0.1-0.1l0.1-0.1
				c0.4-0.1,0.8-0.3,0.9-0.6c0.1-0.2,0.2-0.6,0.2-1.2v-3.7c0-0.7-0.2-1.1-0.6-1.2l-0.3,0l-0.1-0.2l0.1-0.1l1.9-0.7h0.2v2.1
				c0.7-1.4,1.5-2.1,2.4-2.1l0.8,0.3l-0.5,1.3l-0.4-0.1c-0.1-0.1-0.3-0.2-0.4-0.2c-0.1,0-0.3-0.1-0.4-0.1c-0.4,0-0.7,0.2-0.9,0.6
				c-0.3,0.5-0.5,1.2-0.6,1.9V81.8z"/>
			<path class="st1" d="M111.9,82.5c-0.7,1-1.5,1.5-2.6,1.5c-0.7,0-1.3-0.1-1.7-0.4c-0.5-0.3-0.8-0.9-0.8-1.5c0-1.3,1.1-2,3.3-2.2
				c0.5-0.1,1.1-0.2,1.8-0.4v-0.9c0-1.4-0.6-2.1-1.9-2.1c-0.5,0-1,0.1-1.3,0.4c-0.5,0.3-0.7,0.7-0.7,1.2c-0.2-0.1-0.3-0.2-0.5-0.2
				c-0.2-0.1-0.4-0.2-0.4-0.3c0.1-0.3,0.6-0.7,1.3-1c0.7-0.3,1.3-0.4,1.7-0.4c0.9,0,1.6,0.2,2.1,0.6c0.6,0.4,0.9,1.1,0.9,1.9V82
				c0,0.9,0.2,1.4,0.5,1.4c0.2,0,0.3-0.1,0.5-0.2l0,0.2c-0.8,0.3-1.3,0.5-1.5,0.5C112.2,83.9,112,83.5,111.9,82.5L111.9,82.5z
				 M111.8,81.3v-1.5c-0.1,0-0.5,0.2-1.4,0.4c-1.6,0.1-2.4,0.7-2.4,1.8c0,0.5,0.2,0.8,0.5,1.1c0.3,0.3,0.7,0.4,1.2,0.4
				c0.6,0,1.1-0.2,1.5-0.7C111.6,82.4,111.8,81.9,111.8,81.3z"/>
			<path class="st1" d="M116.9,80.8c0,1.8,0.4,2.6,1.2,2.6c0.2,0,0.4-0.1,0.6-0.4l0.1,0.2c-0.3,0.5-0.9,0.8-1.6,0.8
				c-1,0-1.5-0.6-1.5-1.8V77h-0.9c0,0-0.1-0.1-0.1-0.1c0,0,0-0.1,0.1-0.1l0-0.1c0.9-0.5,1.5-1.2,1.9-2.3h0.1c0-0.1,0.1-0.1,0.1-0.1
				c0,0,0.1,0,0.1,0.1v2h2.1l-0.2,0.6h-1.9V80.8z"/>
			<path class="st1" d="M128.3,80c0,1.2-0.4,2.1-1.2,2.9c-0.8,0.8-1.8,1.1-3,1.1c-1.2,0-2.2-0.4-3-1.1c-0.8-0.8-1.3-1.7-1.3-2.9
				c0-1.2,0.4-2.1,1.3-2.9c0.8-0.8,1.8-1.1,3-1.1c1.2,0,2.2,0.4,3,1.1C127.9,77.9,128.3,78.8,128.3,80z M126.9,80
				c0-1-0.3-1.8-0.7-2.5c-0.5-0.8-1.3-1.2-2.2-1.2c-0.9,0-1.6,0.4-2.1,1.2c-0.4,0.7-0.6,1.5-0.6,2.5c0,1,0.3,1.8,0.7,2.5
				c0.5,0.8,1.3,1.2,2.2,1.2c0.9,0,1.6-0.4,2.1-1.2C126.7,81.8,126.9,81,126.9,80z"/>
			<path class="st1" d="M131.5,81.8c0,0.6,0.1,1,0.2,1.2c0.2,0.3,0.6,0.5,1.1,0.6h0.1l0.1,0.1l-0.1,0.1h-3.7l-0.1-0.1l0.1-0.1
				c0.4-0.1,0.8-0.3,0.9-0.6c0.1-0.2,0.2-0.6,0.2-1.2v-3.7c0-0.7-0.2-1.1-0.6-1.2l-0.3,0l-0.1-0.2l0-0.1l1.9-0.7h0.2v2.1
				c0.7-1.4,1.5-2.1,2.4-2.1l0.8,0.3l-0.5,1.3l-0.5-0.1c-0.1-0.1-0.3-0.2-0.4-0.2c-0.1,0-0.3-0.1-0.4-0.1c-0.4,0-0.7,0.2-0.9,0.6
				c-0.3,0.5-0.5,1.2-0.6,1.9V81.8z"/>
			<path class="st1" d="M137.4,81.8c0,0.5,0.1,0.9,0.2,1.1c0.1,0.4,0.4,0.6,0.9,0.7l0.1,0.1l-0.1,0.1h-3.3l-0.1-0.1l0.1-0.1
				c0.5-0.1,0.8-0.3,0.9-0.6c0.1-0.2,0.2-0.6,0.2-1.2v-3.6c0-0.4,0-0.6-0.1-0.8c-0.1-0.2-0.3-0.4-0.6-0.4l-0.3-0.1l-0.1-0.2l0.1-0.1
				l2-0.7h0.1V81.8z M135.9,73.4c0-0.2,0.1-0.4,0.2-0.5c0.2-0.1,0.3-0.2,0.5-0.2c0.2,0,0.4,0.1,0.5,0.2c0.2,0.1,0.2,0.3,0.2,0.5
				c0,0.2-0.1,0.4-0.2,0.5c-0.2,0.1-0.3,0.2-0.5,0.2c-0.2,0-0.4-0.1-0.5-0.2C136,73.7,135.9,73.6,135.9,73.4z"/>
			<path class="st1" d="M147.9,80c0,1.2-0.4,2.1-1.2,2.9c-0.8,0.8-1.8,1.1-3,1.1c-1.2,0-2.2-0.4-3-1.1c-0.8-0.8-1.3-1.7-1.3-2.9
				c0-1.2,0.4-2.1,1.3-2.9c0.8-0.8,1.8-1.1,3-1.1c1.2,0,2.2,0.4,3,1.1C147.5,77.9,147.9,78.8,147.9,80z M146.5,80
				c0-1-0.3-1.8-0.7-2.5c-0.5-0.8-1.3-1.2-2.2-1.2c-0.9,0-1.6,0.4-2.1,1.2c-0.4,0.7-0.6,1.5-0.6,2.5c0,1,0.3,1.8,0.7,2.5
				c0.5,0.8,1.3,1.2,2.2,1.2c0.9,0,1.6-0.4,2.1-1.2C146.3,81.8,146.5,81,146.5,80z"/>
			<path class="st1" d="M165.6,73.1h1.6l0.1,0.1l0,0.1c-0.6,0.1-0.9,0.8-0.9,1.9l0.3,6.5c0,0.6,0.1,1,0.2,1.2c0.2,0.3,0.5,0.5,1,0.6
				l0.1,0.1l-0.1,0.1H164l-0.1-0.1l0.1-0.1c0.5-0.1,0.9-0.3,1-0.6c0.1-0.3,0.2-0.7,0.2-1.3l-0.3-7.3l-4.4,9.3
				c-0.1,0.1-0.2,0.1-0.2,0.1c-0.1,0-0.2,0-0.2-0.1l-4.4-9.3l-0.3,7.3c0,1.1,0.4,1.7,1.2,1.9l0,0.1l-0.1,0.1h-3l-0.1-0.1l0.1-0.1
				c0.5-0.1,0.8-0.3,1-0.6c0.1-0.3,0.2-0.7,0.3-1.2l0.3-6.8c0-0.4,0-0.8-0.1-1c-0.1-0.3-0.4-0.5-0.8-0.5l-0.1-0.1l0.1-0.1h2.4
				l4.2,8.6l4.1-8.6l0.1,0H165.6z"/>
			<path class="st1" d="M176.3,81.4c-0.3,0.8-0.8,1.4-1.5,1.9c-0.7,0.5-1.5,0.7-2.3,0.7c-1.1,0-2-0.4-2.7-1.2c-0.7-0.8-1-1.7-1-2.8
				c0-1.2,0.4-2.1,1.1-2.9c0.8-0.8,1.7-1.1,2.8-1.1c0.8,0,1.5,0.3,2.3,0.8c0.7,0.5,1.1,1.2,1.2,1.9c0,0.2-0.3,0.2-0.8,0.2h-5.3
				c0,0.2,0,0.4,0,0.7v0.1c0,1,0.3,1.9,0.8,2.5c0.5,0.7,1.3,1,2.3,1c0.6,0,1.2-0.2,1.7-0.6c0.5-0.4,0.9-0.9,1.1-1.4
				c0.1,0,0.1,0,0.2,0C176.3,81.3,176.3,81.4,176.3,81.4z M170.3,78.5h4.6c-0.1-0.7-0.3-1.2-0.7-1.6c-0.4-0.4-0.9-0.6-1.5-0.6
				C171.4,76.3,170.6,77,170.3,78.5z M171.5,74.8l1.2-1.4c0.3-0.4,0.6-0.7,0.8-0.9c0.4-0.4,0.7-0.6,0.9-0.6c0.1,0,0.3,0.1,0.4,0.2
				c0.1,0.1,0.2,0.2,0.2,0.4c0,0.2-0.1,0.4-0.4,0.6l-2.6,1.7H171.5z"/>
			<path class="st1" d="M184,82.4c-0.9,1.1-1.9,1.6-3,1.6c-1.1,0-1.9-0.4-2.6-1.1c-0.7-0.7-1-1.6-1-2.7c0-1.2,0.4-2.3,1.2-3.1
				c0.8-0.8,1.8-1.2,3-1.2c0.9,0,1.7,0.3,2.4,0.8v-2.7c0-0.4,0-0.6-0.1-0.8c-0.1-0.2-0.3-0.4-0.6-0.4l-0.3-0.1l-0.1-0.2l0.1-0.1
				l2.1-0.6h0.2v9.3c0,1.1,0.2,1.7,0.6,1.9l0.5,0c0,0.1,0,0.2-0.1,0.3l-1.9,0.5L184,82.4z M184.1,81v-2.1c-0.1-0.8-0.3-1.4-0.8-1.8
				c-0.5-0.5-1.1-0.7-1.8-0.7c-0.9,0-1.6,0.4-2,1.1c-0.4,0.6-0.6,1.4-0.6,2.4c0,0.9,0.2,1.7,0.6,2.4c0.5,0.8,1.2,1.2,2,1.2
				c0.7,0,1.3-0.2,1.8-0.7C183.8,82.2,184.1,81.7,184.1,81z"/>
			<path class="st1" d="M189.1,81.8c0,0.5,0.1,0.9,0.2,1.1c0.1,0.4,0.4,0.6,0.9,0.7l0.1,0.1l-0.1,0.1h-3.3l-0.1-0.1l0.1-0.1
				c0.5-0.1,0.8-0.3,0.9-0.6c0.1-0.2,0.2-0.6,0.2-1.2v-3.6c0-0.4,0-0.6-0.1-0.8c-0.1-0.2-0.3-0.4-0.6-0.4l-0.3-0.1l-0.1-0.2l0.1-0.1
				l2-0.7h0.1V81.8z M187.7,73.4c0-0.2,0.1-0.4,0.2-0.5c0.2-0.1,0.3-0.2,0.5-0.2c0.2,0,0.4,0.1,0.5,0.2c0.2,0.1,0.2,0.3,0.2,0.5
				c0,0.2-0.1,0.4-0.2,0.5c-0.2,0.1-0.3,0.2-0.5,0.2c-0.2,0-0.4-0.1-0.5-0.2C187.7,73.7,187.7,73.6,187.7,73.4z"/>
			<path class="st1" d="M198.1,81.8l0.2,0.1l0,0.1c-0.8,1.4-2,2.1-3.5,2.1c-1.1,0-2-0.4-2.7-1.1c-0.7-0.7-1-1.7-1-2.8
				c0-1.2,0.4-2.2,1.2-3c0.8-0.8,1.9-1.2,3.1-1.2c1.4,0,2.3,0.3,2.8,1c0,0.3-0.2,0.5-0.4,0.8c-0.1,0.1-0.2,0.2-0.3,0.2
				c-0.1,0-0.2-0.1-0.4-0.3c-0.3-0.8-1-1.2-2-1.2c-0.9,0-1.6,0.4-2.1,1.1c-0.4,0.6-0.6,1.4-0.6,2.4c0,1,0.2,1.8,0.7,2.4
				c0.5,0.7,1.3,1.1,2.2,1.1c0.5,0,1.1-0.2,1.6-0.5C197.4,82.6,197.8,82.2,198.1,81.8z"/>
			<path class="st1" d="M207.9,80c0,1.2-0.4,2.1-1.2,2.9c-0.8,0.8-1.8,1.1-3,1.1c-1.2,0-2.2-0.4-3-1.1c-0.8-0.8-1.3-1.7-1.3-2.9
				c0-1.2,0.4-2.1,1.3-2.9c0.8-0.8,1.8-1.1,3-1.1c1.2,0,2.2,0.4,3,1.1C207.5,77.9,207.9,78.8,207.9,80z M206.5,80
				c0-1-0.3-1.8-0.7-2.5c-0.5-0.8-1.3-1.2-2.2-1.2c-0.9,0-1.6,0.4-2.1,1.2c-0.4,0.7-0.6,1.5-0.6,2.5c0,1,0.3,1.8,0.7,2.5
				c0.5,0.8,1.3,1.2,2.2,1.2c0.9,0,1.6-0.4,2.1-1.2C206.3,81.8,206.5,81,206.5,80z"/>
		</g>
	</g>
	<g>
		<path class="st1" d="M31.5,95.3v15.1c0,1.2,0.2,2,0.5,2.4c0.4,0.5,1.2,0.8,2.3,0.8h3.3c3.8,0,6.5-1.1,8-3.4l0.5-0.8
			c0.1-0.1,0.1-0.1,0.2-0.1l0.2,0c0.1,0,0.2,0.1,0.2,0.2l-2.3,5.1l-19.3,0l-0.2-0.3l0.2-0.3c1.3-0.2,2.1-0.6,2.6-1.3
			c0.4-0.6,0.6-1.6,0.6-2.9V95.3c0-1.4-0.1-2.3-0.4-2.8c-0.4-0.8-1.1-1.2-2.3-1.4l-0.1-0.3l0.2-0.3h9.1l0.2,0.3l-0.2,0.3
			c-1.3,0.2-2.2,0.5-2.7,1.2C31.7,92.9,31.5,93.9,31.5,95.3z"/>
		<path class="st1" d="M59.8,111.9c-1.5,2.3-3.5,3.5-5.9,3.5c-1.6,0-2.9-0.3-3.9-1c-1.2-0.8-1.8-1.9-1.8-3.4c0-2.9,2.5-4.6,7.4-5.1
			c1.2-0.1,2.6-0.4,4.1-1v-2.2c0-3.2-1.4-4.8-4.3-4.8c-1.1,0-2.2,0.3-3.1,0.9c-1,0.7-1.6,1.6-1.6,2.7c-0.4-0.2-0.8-0.4-1.1-0.5
			c-0.5-0.3-0.8-0.5-0.9-0.8c0.2-0.8,1.3-1.5,3.1-2.3c1.7-0.7,3-1,3.9-1c2,0,3.6,0.4,4.8,1.3c1.3,1,2,2.5,2,4.4v8
			c0,2.1,0.4,3.2,1.2,3.2c0.4,0,0.8-0.1,1-0.3l0.1,0.4c-1.7,0.8-2.9,1.2-3.5,1.2c-0.8,0-1.4-1-1.5-3V111.9z M59.6,109.1v-3.3
			c-0.2,0.1-1.2,0.4-3.1,0.8c-3.6,0.3-5.4,1.7-5.4,4.1c0,1.1,0.4,1.9,1.1,2.5c0.7,0.6,1.6,1,2.7,1c1.3,0,2.4-0.5,3.4-1.6
			C59.2,111.7,59.6,110.5,59.6,109.1z"/>
		<path class="st1" d="M80,109.8c0,1.8-0.8,3.2-2.3,4.2c-1.3,0.9-2.9,1.3-4.8,1.3c-2,0-3.9-0.4-5.7-1.2c-0.2,0-0.3,0.1-0.4,0.3h-0.3
			l0.3-3.9c0.1-0.1,0.2-0.2,0.3-0.2c0.2,0,0.3,0.1,0.4,0.2c0.3,1.2,1,2.2,2.1,2.9c1,0.7,2.2,1,3.5,1c1.2,0,2.2-0.3,3-0.8
			c1-0.6,1.5-1.5,1.5-2.6c0-1.1-0.5-2-1.5-2.7c-0.8-0.6-1.8-1-3-1.2c-3.9-0.7-5.9-2.4-5.9-5.1c0-1.7,0.8-3,2.3-3.9
			c1.2-0.7,2.8-1.1,4.6-1.1c1.9,0,3.6,0.4,5.1,1.1l-0.5,3.5c-0.1,0-0.2,0.1-0.3,0.1c-0.1,0-0.2-0.1-0.3-0.2c-0.2-1.1-0.7-2-1.7-2.7
			c-0.8-0.6-1.9-0.9-3-0.9c-1,0-1.8,0.2-2.5,0.7c-0.8,0.5-1.2,1.3-1.2,2.2c0,1.9,1.6,3.2,4.8,3.9c1.7,0.4,3,0.9,3.9,1.5
			C79.3,107.1,80,108.3,80,109.8z"/>
		<path class="st1" d="M119.4,114.3l0.1,0.3l-0.2,0.3h-9.1l-0.2-0.3l0.1-0.3c1.6-0.1,2.5-0.5,2.5-1.2l0-0.5c0-0.5-0.1-1.1-0.4-1.9
			l-3-7.2h-8.7l-2.7,6.2c-0.5,1.1-0.7,2-0.7,2.5c0,1.1,0.9,1.8,2.7,2l0.1,0.3l-0.2,0.3h-7.6l-0.2-0.3l0.1-0.3
			c1.6-0.3,2.9-1.8,4.1-4.5l8.1-18.3l0.2-1.1l0.2-0.3c0.3-0.1,0.6-0.1,0.8-0.1h0.2c0.4,0,0.7,0,1.1,0.1l0.5,1l8.6,19.8
			C116.7,113.1,117.9,114.2,119.4,114.3z M108.8,102.3l-3.9-8.8l-3.9,8.8H108.8z"/>
		<path class="st1" d="M149.8,110.2c-0.1,2.5,0.7,3.9,2.3,4.1l0.3,0.3l-0.2,0.3h-7.6l-0.2-0.3l0.2-0.3c1-0.2,1.7-0.6,2-1.5
			c0.2-0.5,0.3-1.4,0.3-2.7l0.1-6.3c0-1.6-0.3-2.9-0.8-3.8c-0.7-1.2-1.8-1.8-3.3-1.8c-1.3,0-2.4,0.6-3.5,1.7c-1,1-1.6,2.2-1.9,3.5
			v6.8c0,2.5,0.7,3.9,2,4.1l0.2,0.3l-0.1,0.3h-7.4l-0.2-0.3l0.2-0.3c1-0.2,1.7-0.6,2.1-1.4c0.2-0.5,0.3-1.4,0.3-2.7v-6.3
			c0-3.7-1.3-5.6-3.9-5.6c-1.3,0-2.4,0.6-3.6,1.7c-1.1,1.1-1.8,2.3-2.1,3.6v6.7c0,1.2,0.1,2.1,0.3,2.6c0.3,0.9,0.9,1.4,1.8,1.5
			l0.3,0.3l-0.2,0.3h-7.3l-0.2-0.3l0.2-0.3c1-0.2,1.7-0.7,2-1.5c0.2-0.5,0.3-1.4,0.3-2.6V102c0-1.6-0.4-2.5-1.3-2.7l-0.7-0.1
			l-0.2-0.4l0.1-0.2l4.3-1.5h0.3v3.9c0.8-1.1,1.8-2,3-2.8c1.3-0.8,2.6-1.3,3.8-1.3c2.8,0,4.6,1.4,5.4,4.2c0.7-1.2,1.7-2.2,3-3
			c1.3-0.8,2.6-1.2,4-1.2c1.9,0,3.3,0.6,4.3,1.8c1,1.2,1.4,2.8,1.4,4.7L149.8,110.2z"/>
		<path class="st1" d="M171.3,109.4c-0.6,1.8-1.7,3.2-3.3,4.3c-1.6,1.1-3.3,1.6-5.2,1.6c-2.5,0-4.6-0.9-6.2-2.7
			c-1.6-1.7-2.3-3.9-2.3-6.5c0-2.6,0.9-4.8,2.6-6.6c1.7-1.7,3.9-2.6,6.5-2.6c1.8,0,3.5,0.6,5.1,1.8c1.6,1.2,2.6,2.7,2.8,4.4
			c0,0.4-0.6,0.5-1.9,0.5h-12c-0.1,0.4-0.1,1-0.1,1.7v0.3c0,2.3,0.6,4.2,1.7,5.7c1.3,1.6,3,2.4,5.3,2.4c1.4,0,2.7-0.4,3.9-1.3
			c1.2-0.9,2.1-1.9,2.5-3.2c0.1-0.1,0.2-0.1,0.3,0C171.1,109.2,171.2,109.3,171.3,109.4z M157.5,102.8h10.3
			c-0.1-1.5-0.6-2.7-1.5-3.6c-0.9-0.9-2-1.4-3.5-1.4C160,97.8,158.2,99.5,157.5,102.8z M160.2,94.5l2.7-3.2c0.7-0.8,1.3-1.5,1.7-2.1
			c0.9-0.9,1.6-1.4,2.1-1.4c0.3,0,0.6,0.1,0.8,0.4c0.2,0.3,0.4,0.6,0.4,0.9c0,0.5-0.3,1-1,1.5l-5.9,4H160.2z"/>
		<path class="st1" d="M178.4,110.2c0,1.3,0.2,2.2,0.5,2.8c0.4,0.7,1.3,1.2,2.5,1.3h0.2l0.2,0.3l-0.2,0.3h-8.3l-0.2-0.3l0.2-0.3
			c1-0.2,1.7-0.6,2.1-1.5c0.2-0.5,0.3-1.4,0.3-2.7v-8.4c0-1.6-0.5-2.5-1.4-2.7l-0.7-0.1l-0.2-0.4l0.1-0.2l4.4-1.5h0.4v4.8
			c1.6-3.2,3.5-4.8,5.5-4.8l1.8,0.6l-1.1,3l-1-0.3c-0.3-0.3-0.6-0.4-0.9-0.4c-0.3-0.1-0.6-0.1-0.9-0.1c-0.9,0-1.6,0.5-2,1.4
			c-0.6,1.2-1.1,2.7-1.3,4.4V110.2z"/>
		<path class="st1" d="M191.6,110.2c0,1.2,0.1,2,0.3,2.6c0.3,0.8,1,1.3,2,1.5l0.2,0.3l-0.2,0.3h-7.6l-0.2-0.3l0.2-0.3
			c1-0.2,1.7-0.6,2.1-1.5c0.3-0.6,0.4-1.4,0.4-2.7V102c0-0.8-0.1-1.4-0.2-1.7c-0.2-0.5-0.7-0.9-1.3-1l-0.7-0.1l-0.2-0.4l0.1-0.2
			l4.6-1.5h0.3V110.2z M188.4,91.1c0-0.5,0.2-0.9,0.5-1.2c0.3-0.3,0.7-0.5,1.2-0.5c0.5,0,0.9,0.2,1.2,0.5c0.3,0.3,0.5,0.7,0.5,1.2
			c0,0.5-0.2,0.9-0.5,1.2c-0.3,0.3-0.7,0.5-1.2,0.5c-0.5,0-0.9-0.2-1.2-0.5C188.6,92,188.4,91.6,188.4,91.1z"/>
		<path class="st1" d="M212.1,110.2l0.5,0.2l0.1,0.2c-1.8,3.2-4.4,4.7-7.9,4.7c-2.6,0-4.6-0.8-6.1-2.5c-1.5-1.7-2.3-3.8-2.3-6.4
			c0-2.8,0.9-5,2.8-6.8c1.9-1.8,4.2-2.6,7-2.6c3.2,0,5.3,0.7,6.3,2.2c-0.1,0.6-0.4,1.2-0.9,1.8c-0.2,0.3-0.4,0.4-0.6,0.4
			c-0.3,0-0.6-0.2-0.8-0.7c-0.7-1.8-2.2-2.7-4.6-2.7c-2.1,0-3.6,0.9-4.7,2.6c-0.9,1.5-1.4,3.3-1.4,5.5c0,2.2,0.5,4,1.6,5.5
			c1.2,1.7,2.8,2.5,4.9,2.5c1.2,0,2.4-0.4,3.5-1.1C210.6,112.2,211.5,111.3,212.1,110.2z"/>
		<path class="st1" d="M226.6,111.9c-1.5,2.3-3.5,3.5-5.9,3.5c-1.6,0-2.9-0.3-3.9-1c-1.2-0.8-1.8-1.9-1.8-3.4c0-2.9,2.5-4.6,7.4-5.1
			c1.2-0.1,2.6-0.4,4.1-1v-2.2c0-3.2-1.4-4.8-4.3-4.8c-1.2,0-2.2,0.3-3.1,0.9c-1,0.7-1.6,1.6-1.6,2.7c-0.4-0.2-0.8-0.4-1.1-0.5
			c-0.5-0.3-0.8-0.5-0.9-0.8c0.2-0.8,1.3-1.5,3.1-2.3c1.7-0.7,3-1,3.9-1c2,0,3.6,0.4,4.7,1.3c1.3,1,2,2.5,2,4.4v8
			c0,2.1,0.4,3.2,1.2,3.2c0.4,0,0.8-0.1,1-0.3l0.1,0.4c-1.7,0.8-2.9,1.2-3.5,1.2c-0.8,0-1.4-1-1.5-3V111.9z M226.4,109.1v-3.3
			c-0.2,0.1-1.2,0.4-3.1,0.8c-3.6,0.3-5.4,1.7-5.4,4.1c0,1.1,0.4,1.9,1.1,2.5c0.7,0.6,1.6,1,2.7,1c1.3,0,2.4-0.5,3.4-1.6
			C225.9,111.7,226.4,110.5,226.4,109.1z"/>
		<path class="st1" d="M246.7,109.8c0,1.8-0.8,3.2-2.3,4.2c-1.3,0.9-2.9,1.3-4.8,1.3c-2,0-3.9-0.4-5.7-1.2c-0.2,0-0.3,0.1-0.4,0.3
			h-0.3l0.3-3.9c0.1-0.1,0.2-0.2,0.3-0.2c0.2,0,0.3,0.1,0.4,0.2c0.3,1.2,1,2.2,2.1,2.9c1,0.7,2.2,1,3.5,1c1.2,0,2.2-0.3,3-0.8
			c1-0.6,1.5-1.5,1.5-2.6c0-1.1-0.5-2-1.5-2.7c-0.8-0.6-1.8-1-3-1.2c-3.9-0.7-5.9-2.4-5.9-5.1c0-1.7,0.8-3,2.3-3.9
			c1.2-0.7,2.8-1.1,4.6-1.1c1.9,0,3.6,0.4,5.1,1.1l-0.5,3.5c-0.1,0-0.2,0.1-0.3,0.1c-0.1,0-0.2-0.1-0.3-0.2c-0.2-1.1-0.7-2-1.7-2.7
			c-0.8-0.6-1.9-0.9-3-0.9c-1,0-1.8,0.2-2.5,0.7c-0.8,0.5-1.2,1.3-1.2,2.2c0,1.9,1.6,3.2,4.8,3.9c1.7,0.4,3,0.9,3.9,1.5
			C246.1,107.1,246.7,108.3,246.7,109.8z"/>
	</g>
	<g>
		<path class="st2" d="M48.7,75c22.7-25.2,58.1-41.8,97.4-41.8c38.5,0,73.6,18.4,96.3,42.7c0.2,0.2,0.8,0.9,0.9,0.8
			c0.4-0.1,0.1-0.3,0-0.5C220,45.5,181.1,24.9,135.9,24.9c-44.2,0-83.7,19.8-107.3,49.3c-1.9,2.2-0.1,2.3-0.1,2.3h16.3
			C44.7,76.6,46.9,76.7,48.7,75z"/>
		<path class="st2" d="M216.2,75.4c-19.1-18.6-48.9-30.9-82-30.9c-32.4,0-61.9,13.6-81.1,31.6c-0.2,0.2-0.6,0.7-0.8,0.6
			c-0.4-0.1-0.1-0.3,0-0.4c19.7-22.7,52.4-37.9,90.5-37.9c37.2,0,70.4,14.7,90.3,36.5c1.6,1.6,0.1,1.7,0.1,1.7h-13.7
			C219.6,76.6,217.8,76.7,216.2,75.4z"/>
	</g>
</g>
</svg>
